<svg width="88" height="88" viewBox="0 0 88 88" fill="none" xmlns="http://www.w3.org/2000/svg">
<circle cx="44" cy="44" r="44" fill="#3A3054"/>
<path fill-rule="evenodd" clip-rule="evenodd" d="M38.9763 48.9606C38.9763 46.8058 42.1452 36.8288 42.7802 34.8508C43.1116 33.8172 44.8252 33.8172 45.1567 34.8508C45.7917 36.8288 48.9605 46.8058 48.9605 48.9606C48.9605 51.7138 46.7217 53.9527 43.9684 53.9527C41.2152 53.9527 38.9763 51.7138 38.9763 48.9606ZM41.4723 48.9606C41.4723 50.3366 42.5924 51.4567 43.9684 51.4567C45.3444 51.4567 46.4645 50.3366 46.4645 48.9606C46.4645 47.9404 45.2018 43.4651 43.9684 39.4175C42.735 43.4651 41.4723 47.9404 41.4723 48.9606Z" fill="#2BD0D0"/>
<path fill-rule="evenodd" clip-rule="evenodd" d="M43.9685 24C32.958 24 24 32.958 24 43.9685C24 54.9789 32.958 63.937 43.9685 63.937C54.9789 63.937 63.937 54.9789 63.937 43.9685C63.937 32.958 54.9789 24 43.9685 24ZM36.1645 59.5788C41.0271 57.1766 46.91 57.1766 51.7726 59.5788C49.4202 60.7599 46.7751 61.441 43.9685 61.441C41.1618 61.441 38.5169 60.7599 36.1645 59.5788ZM33.7231 58.0914C39.9404 54.3772 47.9965 54.3772 54.2138 58.0914C58.5838 54.9125 61.4409 49.7739 61.4409 43.9685H56.4488V41.4724H61.2417C60.71 37.7809 59.0305 34.4614 56.5637 31.8901L53.6761 34.7777L51.9113 33.0129L54.7085 30.2157C52.0505 28.1354 48.7821 26.8132 45.2165 26.5593V30.2403H42.7204V26.5594C39.1549 26.8132 35.8864 28.1354 33.2284 30.2157L36.0257 33.013L34.2609 34.7778L31.3733 31.8901C28.9064 34.4614 27.227 37.7809 26.6953 41.4725H31.4881V43.9685H26.496C26.496 49.7739 29.3532 54.9125 33.7231 58.0914Z" fill="#2BD0D0"/>
</svg>
