<svg width="88" height="88" viewBox="0 0 88 88" fill="none" xmlns="http://www.w3.org/2000/svg">
<circle cx="44" cy="44" r="44" fill="#3A3054"/>
<path fill-rule="evenodd" clip-rule="evenodd" d="M29.9375 42.75C30.8835 42.75 31.7429 42.3737 32.3755 41.7637L35.8246 43.4882C35.8069 43.6304 35.7969 43.7748 35.7969 43.9219C35.7969 45.8604 37.374 47.4375 39.3125 47.4375C41.251 47.4375 42.8281 45.8604 42.8281 43.9219C42.8281 43.3799 42.7045 42.866 42.4845 42.407L47.1726 37.7189C47.6316 37.9389 48.1455 38.0625 48.6875 38.0625C50.626 38.0625 52.2031 36.4854 52.2031 34.5469C52.2031 34.1807 52.1467 33.8276 52.0423 33.4955L56.1152 30.441C56.673 30.8137 57.3426 31.0312 58.0625 31.0312C60.001 31.0312 61.5781 29.4541 61.5781 27.5156C61.5781 25.5771 60.001 24 58.0625 24C56.124 24 54.5469 25.5771 54.5469 27.5156C54.5469 27.8818 54.6033 28.2349 54.7077 28.567L50.6348 31.6215C50.077 31.2488 49.4074 31.0312 48.6875 31.0312C46.749 31.0312 45.1719 32.6084 45.1719 34.5469C45.1719 35.0889 45.2955 35.6028 45.5155 36.0618L40.8274 40.7499C40.3684 40.5298 39.8545 40.4062 39.3125 40.4062C38.3665 40.4062 37.5071 40.7825 36.8745 41.3926L33.4254 39.668C33.4431 39.5258 33.4531 39.3815 33.4531 39.2344C33.4531 37.2959 31.876 35.7188 29.9375 35.7188C27.999 35.7188 26.4219 37.2959 26.4219 39.2344C26.4219 41.1729 27.999 42.75 29.9375 42.75ZM58.0625 26.3438C58.7086 26.3438 59.2344 26.8696 59.2344 27.5156C59.2344 28.1617 58.7086 28.6875 58.0625 28.6875C57.4164 28.6875 56.8906 28.1617 56.8906 27.5156C56.8906 26.8696 57.4164 26.3438 58.0625 26.3438ZM49.8594 34.5469C49.8594 33.9008 49.3336 33.375 48.6875 33.375C48.0414 33.375 47.5156 33.9008 47.5156 34.5469C47.5156 35.1929 48.0414 35.7188 48.6875 35.7188C49.3336 35.7188 49.8594 35.1929 49.8594 34.5469ZM39.3125 42.75C39.9586 42.75 40.4844 43.2758 40.4844 43.9219C40.4844 44.5679 39.9586 45.0938 39.3125 45.0938C38.6664 45.0938 38.1406 44.5679 38.1406 43.9219C38.1406 43.2758 38.6664 42.75 39.3125 42.75ZM31.1094 39.2344C31.1094 38.5883 30.5836 38.0625 29.9375 38.0625C29.2914 38.0625 28.7656 38.5883 28.7656 39.2344C28.7656 39.8804 29.2914 40.4062 29.9375 40.4062C30.5836 40.4062 31.1094 39.8804 31.1094 39.2344Z" fill="#2BD0D0"/>
<path fill-rule="evenodd" clip-rule="evenodd" d="M62.8281 61.6562H61.5781V36.8906C61.5781 36.2433 61.0535 35.7188 60.4062 35.7188H55.7188C55.0715 35.7188 54.5469 36.2433 54.5469 36.8906V61.6562H52.2031V43.9219C52.2031 43.2746 51.6785 42.75 51.0312 42.75H46.3438C45.6965 42.75 45.1719 43.2746 45.1719 43.9219V61.6562H42.8281V53.2969C42.8281 52.6496 42.3035 52.125 41.6562 52.125H36.9688C36.3215 52.125 35.7969 52.6496 35.7969 53.2969V61.6562H33.4531V48.6094C33.4531 47.9621 32.9285 47.4375 32.2812 47.4375H27.5938C26.9465 47.4375 26.4219 47.9621 26.4219 48.6094V61.6562H25.1719C24.5246 61.6562 24 62.1808 24 62.8281C24 63.4754 24.5246 64 25.1719 64H62.8281C63.4754 64 64 63.4754 64 62.8281C64 62.1808 63.4754 61.6562 62.8281 61.6562ZM56.8906 38.0625H59.2344V61.6562H56.8906V38.0625ZM49.8594 45.0938H47.5156V61.6562H49.8594V45.0938ZM38.1406 54.4688H40.4844V61.6562H38.1406V54.4688ZM31.1094 49.7812H28.7656V61.6562H31.1094V49.7812Z" fill="#2BD0D0"/>
</svg>
